<mxfile host="app.diagrams.net" agent="Mozilla/5.0 (Windows NT 10.0; Win64; x64) AppleWebKit/537.36 (KHTML, like Gecko) Chrome/137.0.0.0 Safari/537.36 Edg/137.0.0.0" version="28.0.4">
  <diagram name="Page-1" id="OK-E7gYG8kOErMmUxyAF">
    <mxGraphModel dx="1418" dy="760" grid="1" gridSize="10" guides="1" tooltips="1" connect="1" arrows="1" fold="1" page="1" pageScale="1" pageWidth="827" pageHeight="1169" math="0" shadow="0">
      <root>
        <mxCell id="0" />
        <mxCell id="1" parent="0" />
        <mxCell id="1_EXgmqUEajrbALuAghl-1" value="Labeled Samples" style="rounded=1;whiteSpace=wrap;html=1;" vertex="1" parent="1">
          <mxGeometry x="80" y="110" width="120" height="60" as="geometry" />
        </mxCell>
        <mxCell id="1_EXgmqUEajrbALuAghl-2" value="Unlabeled Samples" style="rounded=1;whiteSpace=wrap;html=1;" vertex="1" parent="1">
          <mxGeometry x="90" y="290" width="120" height="60" as="geometry" />
        </mxCell>
        <mxCell id="1_EXgmqUEajrbALuAghl-5" value="&lt;img src=&quot;data:image/jpeg;base64,/9j/4AAQSkZJRgABAQAAAQABAAD/2wCEAAkGBxMTEhIRExIVFhUXFxYaFRgTGBUXGRUZFxgYGBUXFxoYHSggGBolGxgWLTEhJSkrLi4xGB83ODMtNygtLisBCgoKDg0OGhAQGy0mHyMtMi4tLS0tKy8rLS0tNS0tLS0tLi0tLS0tLS0tLTAtLTctLS0tLS0tLS0tLS8tLS0tN//AABEIAHoBngMBIgACEQEDEQH/xAAcAAEAAgMBAQEAAAAAAAAAAAAABwgEBQYDAQL/xABNEAABAwIBCAYECAsIAQUAAAABAAIDBBEFBgcSEyExQVEiYXGBkaEycoKxFFJic5KissEjJCVCQ0RTg7PC0jNUY3STo8PRNBUWF2Tw/8QAGgEBAAIDAQAAAAAAAAAAAAAAAAECAwQFBv/EADMRAAIBAwMBBAkEAgMAAAAAAAABAgMEERIhMUEFUXGBEyIjMmGxwdHwFDNSkYLxFSRC/9oADAMBAAIRAxEAPwCcUREAREQBERAEREAREQBERAEREAREQBERAEREAREQBERAEREAREQBERAEREAREQBERAEREAREQBERAEREAREQBERAEREAREQBERAEWqxrKSkpC0VE7Iy7aGm5cRz0Wgm3XZZWF4nDURiWCRsjL2uw3sRvB5HqKtpeM42BloiKoCLR5RZW0lFoiols5wuGNBe4jnZo2DrPJZOAY/T1kZkp5A8A2cLFrmnk5p2hW0S06sbA2aIiqAiLS5TZUU1CzSnf0j6Ebdr3+q3l1mw61MYuTwgbpFBePZ1ayYkQBtOzhogPkPa5wsO5uzmVyFVjVTIbyVMzvWkeR4XsFuwsJv3ngo5otGiqvFiMzTds8rTzbI8e4rpMHzjYhARebXN+LONLZ1OFnX7z2KZdnzXDGssIi4/JDOFTVpEZ/Azn9G8gh5/w3bNLs2HqXYLSnCUHiSL5CIiqAi+EriKzOph7JDGHSPANi+Nl2dxJBcOsA9V1eFOU/dWRk7hF4UNZHNGyWJ4ex4u1zdxH/wC4L3VAEQqPMTzt0kcpjjjlmaDYyM0A089DSPSHXsB4K8Kcp+6skN4JDRYWDYrFVQsnhdpMeNh3EEbC0jgQd4WaqtY2ZIRa/KDFm0tPLUvBIjbew3uO5rRyuSB3qI488FYH3dBTmPb0BrGu6umXEd+j3BZaVvOom4kNpE2IoKrs7Ne++gIYhw0WFzh3vcQforUS5f4k7fWPHqtiHuYs6sKj5wRrRYxFXFmXeJD9ck7xGfe1bSgzqYhGRpuilHHWRgG3UYy23eCpdhUXDQ1onpFy2QuWceIsfZhjlj0dNhOkLOvZzXWFxsPAEW7L4eW2cOKhfqGxmaawLmh2i1gO0abrHaRtsButuuFrKjNz0Y3JyjtUXFZEZw4q52pezUz7S1ulpNeBv0HWG0DgR47bdqqzhKDxJE5CIioAiLl8s8t4MP0Gva6SR4JaxlhZoNtJxO4X3bybHkVaMHJ4jyDqEXKZFZdQ4gXxtY6KVg0ixxB0m3A0mkbwCQDsFrjmtrlHlHT0UYkqH2BNmtaNJzzx0QOXE7gpdOSlpa3GTbIuGgzrYcd7pWetE4/YutjHnDw0/rbR2tkHvarOjUXMX/RGUdQi5g5wcN/vbPoyf0r8/wDyJhn97b9CX+lR6Kf8X/QyjqUXNx5eYad1ZEPWJb9oBZUeV1A7dW03fNGPeVHo59zGTdIvCjrI5W6cUjJG/Gjc1w8Wmy91QkLwrqpsUckrzZrGue48g0EnyC91xuduu1WGzAGxlcyMdjnXePoNer0465qPeCC8WxJ9TNJUSG75HFx6h+a0dQFgOxdhmcxcxV2oJ6E7S23DTYC9h7bB471wizsCrdRU0817auWNxPyQ4af1b+K79WmpU3D4GJPctGvjnAAk7hvX1c7nBxL4Ph9VJeziwsb60n4Np7i6/cvPxi5SUV1MpX/HsUdU1M1Q43MjyR1N3Mb2BoaO5b7Ndi5p8QhF+hN+CeOel/ZntD7fSK5IL1pKjVyRy/s3seO1jg4e5ehnTTg4fDBizuWsRfGm4uEe4AEk2A2kngvOGU5zLrKxmHwadg6V9xCw8Txc75Lbi/cOKr3iWISVEr5pnl8jj0nHyAHADgBuWyyzx91bVyTknQvoxD4sbfR7ztJ63di22bbI/wCHTF8l/g8RGstsL3bxGDw2bSeRHO47NGnG3p6pc9fsY28s1+S+RtVXbYmBsd7GWS4Zs3huy7z2d5CkTDsztO0DX1EsjuOrDI2+BDj5qSIIWsa1jGhrWgBrWgANA3AAbgvRaNS9qSe2yLKKI7qs0FG4dCWdh9Zjh3gt+8Licpc2VXSgyRkVEY2kxgh7RzMdzceqT2KekUQu6sXznxDiipzTuIPIgjyIKmnNfl2ai1HUuvMB+Cef0rRva7/EA8RfiDfUZ4MloY9GsicyN73WkiuBrCf0jG/GH53PfvG2N6e7CHNcQ4G4LSQWngQRtB61ku723dL1uei6/wCjbtLCtXfqrbvfBYfKDLKjpLtllvJ+zj6b+8DY32iFpsns5EdXVMpmU0jdPSs4lptotLruaNwsN9zvCiDCMInqpNXBG57jtJ4Nv+c9x2AdZ39am3IbItlC0vcQ+ocLPeNzRv0GX4brnebcNgHFp1alSWUsI6NzaWtrTak9U3x98fcxM7mMGCgcxps+dwiFt4aQXSH6II9pQIpKz5VulU00F/7OJzz2yut7o/NRqvTWcNNJPvOBJ7kxZjcTLoailJ/s3h7Opsl9ID2mk+0pPUD5m63QxEMvslikZbm5tpB5Md4qeFz7yGmq/juXjwcrnOxIwYdUOabOeBG22w/hDout7Ol4KvClnPpiWylpQeLpXdw0I/G8ngomW/Yw00s95WXJKmYzEzp1NKTsIbKwciCGSe+PwUuqv2aWq0MThH7RssZ+gZB5xhWBWjexxV8S0eDl85sGnhlWOTWu+g9rj5Aquysnl4fydW/MSfZKrYtvs/3H4lZnRYHkTXVbGywwjVuvove9jWmxINtulvB4LooM0FYfSmp29hkd/IFIOasfkul7Jf40i6xYKt5UUmljZkqKITmzP1g9Gend2mRv8pWkr83eJRfqxeOcTmuHhcO8lYdFSN9VXOGTpRHmabJGakE09QNB8ga1sdwS1rSSS4jZckjZwt12EZ5xBbE62/7QebGEeRCseq+52IdHFKg/HETv9trf5VltKrnWcpdV9iJLCOUp53Mc2Rji17SHNcN7XA3BHerFZC5UNr6YSbBKyzZmD813xh8l28d44FVxW5yTyhkoahs7Llu6Rl/7Rh3jtG8Hn1XW3c0PSx25XBWLwWYRYuF4hHURRzxO0mPaC0/cRwI3EcCFlLhtY2MoUIZ7oiK6J3B0Dbey+S/vHipvUQ5+GfhKF3Ns48DD/wBlbVk/bLzKy4OOzeVphxGkcDsc/Qd1iQFm3vIPcuzz4YZM58FSGudC2NzXEAkRu0tK7rbgRbbu6PYo4wJ9qqmPKeE+EjVaNbV1P0VWM13ERWVgqaHA7ivqs/WYBSSm8tLA883xRuPiQsI5FYd/cqf/AE2/9KV2hHrEjQVtRZeLwhlRUMAsGTStAHANkc0DyXdZm8Kp6h9W2eCOXRbCW6xrXaNzIHWvu3DwW5UqKENZVLcjpFY+TIbDj+pQj1W6P2bLGfm4ww/qoHZJMPc9an/IQ7mW0MjLM3PI3EQxhOg+N+tHDRaOi4jmHlov8o81PC1mB5P01IHNp4Wx6VtIi5c6267nEkjfsvxWzWhcVVVnqSLpYQUV59qzoUkF97nyEeqA0fbcpUUB53sS1uIvYN0LGR+0Rpu+2B7KyWMdVZfAiXBxS+OFwQszDMPfO8xxi7gyR/dGxzz46Nh1kLEC7mVnBQs/k1W6+kppvjxRuPaWjS87qPc+eJ2ZTUoO1zjK/saNFl+0ud9FbvM5iGsw5sd9sMj2HsJ1jfJ9u5RZnGxb4TiFQ8HosOqZ2RXa7uL9M94XItqP/Ya/j+Iu3sc0vhC2+TeBuq3TNbf8HBNKbcSxh1bb8LvLe4FakFdZSTeO4oWcyVq9bRUsvxoYye3RF/O61mczEDBhtS5vpOaIx+9cGOPc0uPcsPNFWazDYm8Y3yMPc4ub9VzVhZ7XEUEYHGoYD2aEp94C4UYYuNL7zI+CDiVZDJPCjR4dHExt5BGXuHxpXDSIPtG3YAq60jQZIwdxe0HsLhdWsW12hJ4jErAr/S5f4iyTWGoLtvSje1ugebdEAFvcQVLGSOW9PWgMvq57bYnHfzMZ/PHmOIWuyzzdxVRdNARFObk/s5T8sD0XfKHeCoexPD5qWXVzMdFI03HDducxw3jrBXnHKrRe+6PTKlaX0PUWmS7vzdFlqmoZG1z3ua1jRdznEAAcyTuUZZU51ALx0TbndrnjYPUYd/a7Z1FcFjWVFVVtijml0msADWt2abhue8D039fgNpvuMms3dXUkOkaaeL40gOmR8lh297rDtVp3E6j000UpdnUbda7mS8On3ZzFRPNUS6T3STSvNhve93U0DbbqC8MRgkhkdDIwskbbSa6123AcN3UR4qxOTeStNRNtCzpkdKR/Se7tPAdQsOpQ3ndYBictuLIie3Qt7gFuWFjCdT2u5gu+2JNaKCwu/r5dx1WYzECW1dOeDmSN9oFrvsN8VKqhPMc4/DJxwMBv3SMt7ypmrapsUckrzZrGue48g0EnyC27qCjVaiji6nLd8lfc51ZrcSqTwYWxj2Gi/wBYuXLL1qql0r3yu9KRznu7XkuPmVmRYQ51JJWD0WTRxH2mOc49x1Q9tdiKUIpPwMXJ75HVmprqSXgJmA9QedB31XFWZVTrnhsPA8jwVj6jKQNwz/1D/wCuHtB4vc0aLT7ZAWjfwblFrwLwZC2cjFPhGI1DgbtYRE3sj2O+vp+K5lfSSdpNydpJ3kneSug/9vkYX8PI2mpDB80GuaT3y2HsreWKcVHyKcmJkjV6qupJOU0YPY5wa7ycVZtVODiNo3jaO0bQrUYbVCWGKUbnsY8e00H71z+0I7xZeBo85EmjhlYecdvpOa371XNT/ncl0cLn63Qj/dZ/0oAWawXs2/iRPknDILKqigw6mjlqoWva12kwuBc273GxaNoO1bKfOZhjf1guPyYpj56FvNV9RS7GDk229xqZOM+dyhHosqH9jGj7TwvGnzw0hcA+GdjeLiGOt1kNcSR2AlQlpjmFlUdBLKQ2KKSQk2AjY53uGztKn9FRS3+Y1MtLTztexsjHBzHAOa5u0Oa4XBB4ghQTniH5Sd81F/MpiyQw59PRU0EnpsjaHWNwDvLQeIF7dyh/PMPyl+4i+1ItSzWKzS+JaXBosisHZV1kdM8kNeJNrd7SI3FpHOzgNnFYWOYRLSTvp5hZ7DvG5zT6L2/JP/Y3groc0o/KkHqy/wANylbODkg2vh6NhUR3MTjx5xu+SfI2PMHbqXHo6yi+GiqWURfm0yz+BS6mZ34tIdt/0Lz+kHyT+cOw8DeemuBAINwdxHFVSnhcxzmPaWuaSHNdsLSNhB61JuarLnV6FBUu6B2QPd+aTuicfi/FPDdytiu7fV7SHmIy6EwqJs/I/wDBP+Y/4VLKijPwNlD2z/8AEtS0/ej+dC0uCMcGH4xT/PRfxGq0qq5gQ/GqX5+H+I1WjWx2hzEiAREXOLlaMtYNDEK1v+PI76btP+ZddmNltV1DecIP0XgfzLQZ0IdHFKr5Rjd4xM+8FbHMxJbErfGglH1o3fyrtVPWtvJGJe8TuiIuKZQiIgPKqnbGx8jjZrWlzjyDRc+QVWq6rM0sszvSke956i9xcR5qes7GI6nDZgN8pbEPbN3/AFGvVfl1uzoYi5FJEm5j8MDpqmocLhkYjHbIdJ3kxvio+xig1FRPB+zkewdjXENPeLeKm7M/h+qw5jyLGZ75D2X0GeLWA96j7PHhuqxDWgdGeNr/AGm9B48Aw+0rUa2bma/NvxhrY8M3uVPwKOvBO10IdEDuMrTotA6zrAexi41F6U0DpHsjYLue5rW+s4gDzK3FBRk5d/0KkzZlsHDKSWocNs7i0fNx3b5u1nkocxCk1MssJ/Rvez6Di37lZ/CaBsEMUDPRjY1g69EWv2lQJnSoNViVRyk0JR7Ys767XrQtK2utP4/QtJbHW5ia/wD8unPyJW9d7sf4aMfiunzt0ZkwyYgXMbo5O4OAce5rnKK812JajEoL+jLpRO9va367WKf66lbLHJE8Xa9rmuHMOBB8isN17O4U/BkrdFVbnhv4dqtFgWIiop4Khu6RjXdhI6Q7QbjuVacYw19NPLTyelG4tPWN7XdhaQe9SHmdysbGTQTOs17iYHHcHO9KPq0jtHWXcwti8p+kpqUenyKxeGTEvGppI5ABJGx4G4PaHW7Lr2RcgyJ4MWnw6FhLmQxtcd5axrSe8BZSIhLbfIVa8usSFRiFVK03brNFvqxgRgjqOiT3qYM5uVoo6cxRu/GJWkMA3xtOx0h5dXM9hUA7l07Ck1mbMc30JUzFUZ06ufgGxxjtJLneQb4rqc7uJ6nDpGA9KZzYh2HpP+q1w71nZuMCNJQxMeLSPvJKOIc+1mnra0NHcVwGfHEdKop6cHZHGXntkdojvAj+ssa9rc56fYcRI0UzYPk7pZPPitd8sb5x1uvrIvJrFDtNTukeyJvpSOaxvrPIa3zIVp6anayNkbR0WtDQOposB4BZ76ppUUu/P9ERRVQFdLVZTF2FwYfc3bM8u+bHTjH03u2cNWFq8o8O+D1VRT2tq5HBvqk6Uf1C1a5bjUZpPzK8H6jjc4ta0Xc4hrRzc42aO8kKe8qMn2x4JJStF9TA1wtxdERI495afFRpmnwnX4hG4i7YQZTy0h0Yx26RB9lT3UQh7XMducCD2EWK597VxOKXTcvFbFUlYLNRX63DYBxi0oj1aDuh9QsUBVlMYpJInelG9zD2scWnzCk/MZiVnVNKTvDZWDs6EnvjWe9jqpZXTciPJ0Wed1sOtzmiHvP3KCCVOuekfk8dU8fueFBTtxUWH7XmJ8k+5P5A4eaeB76Zrnuijc4uc83cWguNi6w232Ld0+SNAz0aKnH7ph94WZgZvTU5/wAKP7AWcuXKpNvdsvgx4aGJnoRMb6rWj3BZCIsZIUD55T+Uj8xF75D96nhQHnhP5Tf81F7ifvW5Y/u+RWXB45pj+VIPVl/huVglXnNY62KUvXrf4UisMpv/ANxeAhwR3nRyH+EtNXTt/DtHTaP0zRy/xAN3MbOShIhWxUUZ0sg76ddSs27TPG0b+crBz+MOO/fe+SzucepPyIlHqeubDL7T0KKqf09ghlcfT5RvJ/P5Hju3+l55+PRou2b3RqI1vMbymmqoKeGY6ToC/RkJ6TmuDLB/MjR9Ljfbt2nY/TKNVTj5katsGHk+Pxul/wAxB/EarRKr+Tg/HKT/ADEH8RqtAtftD3okwCIi5xcgLPA22JydccR8iPuXjmoktilMPjCUf7T3fyrNz0R2xEHnBGfrSD7lq82T7YrRn5Ug8YJQPeu1He2/x+hi/wDRYpERcUyhERARXn3qOhRxcC6V/exrWj+I5RC42BKnDO/kzNVRwTQML3Ql4cxvpOa/RuWjiQWDZvIJtuso9yQyHqqiojEtPLFC1wMrpmOju0G5a0PALid2zdddm0qwjQy3wY5LcnTJ2j1NLTQ/Eijb9FoB81xeevC9ZRx1AG2CQX9SSzXfW1fgpEWHjGHMqIJaeT0ZGFptvFxsI6wdvcuXTqaain8S7RVpdrmjwjX17ZCOhA0yHlpHoxjxJPsLxq82eJMkMbYRI2+yRr4wwjmQ5wc3st4qXcgslhQU2rJDpXnSlcNxNrBrb7dFo+87Lrq3VzBU2ovLZRLc6VRHn1oOlSVI4h8Tu6z2f8ilxc5l/k+a2jfCy2saQ+K+zptvsvwuC4X61zLapoqqTLvgrnFK5jmvabOaQ5p5OabtPiArTYZWtmhinb6MjGPHY9ocPeqxjCajWanUS629tDQdpX3brbuvcrGZHYa+moqaCU3exgDrG9iSTog8QL27lu9oaWovO5WJy+dTIw1TBVQNvPG2zmjfKwbbDm9u23O5HJQerYrgsuM28VWXTwERTn0r/wBnKebgPRd8od4KxWt2oLRPgSicpkfnUkha2Gsa6Vg2NlbYyAcng+n23B7SpJw7LXD5gCyriBP5sjtW76Mliq/43gFTSO0aiF7OTiLsd6rx0T2Xv1LWrZnaUqnrR28OCNTRZqryoooxd9XAP3jCT2AG5XEZS524mtLKJhkfwkkBaxvWGmznHtsO1Q5Ze9DRyTP1cMb5H/FjaXHtNtw6yohY047yefkNTFdWyTSOlle58jjdznbz9wHUNgXe5qsjDPI2tmb+AjN4w79K8HYfUafE25FbHI/NS67Zq+wAsRA03v8AOOGy3yW+PBS1FGGgNaAGgAAAWAA2AADcFjubtJaKf54Exj3n6VeM6M5filVf80xtHUBGw+8nxVh1E2cbN5UTVL6qlAkEmiXsLmtc1zWht2lxALSAONwb89mvZTjCpmXcTJbHFZuqTW4lSNtcB+mf3bXPHm0KxyjjNjkJLSPdVVOiJC3RjY0h2gDtc5xGzSNgNm4X27dkjpeVVOp6vCEVhEJ57ML0KuKoA2TR2d68ey57Wub9FR0rJZaZMsr6cwudoPB0o32voOGzaOLSCQR18wFHOGZn5zKPhE0QiB26ovL3DkNJoDb89tltW11BU8Se6Kyi8nRZlsGMVI+pcLOnd0fm47hni4vPYQpDXnTQNjY2NjQ1rQGtA3AAWAHcvRc6rNzm5PqXSwV5zpUGpxKosLCTQlb7bbO+u16xs3uJfB8RpXk2a5+rd1iXoC/UHFp7lKOdPI59Yxk8ABmiBBbcDWMO2wJ2aQO6/M9S4HJXN9WyVERlhdDEx7XPdJYGzSDosF7km2/cN9+B6dOtCVDEn0wUaeSUM6dEZcMqLb2aMndG4Od9XSVela+SMOBa4Agggg7iDsIKhLKbNVUxPc6kAmiv0W6QEjB8U6ZAfbne55LDZV4xThJ4JkjNwLOyIKeGB9K55jjYzSEgGloANBsW7CQFnHPMz+5O/wBUf0KNqjJutYbOo6kdkMhHiGkFeH/pFT/dp/8ARl/pWz+moPf6kamSa7PMOFEe+Yf0L80WeXpjXUmjHfaY5C5zRz0S0aXZcKNm4HVHdSVJ7IJj/KtlhmRGITuDW0sjATtdM0xNb1nTsSOwEqHb26W/zGWWMgma9rXtILXAOaRuIIuCO5V+zqzaWKVQ+Lqm/wCzG73uKnrCKIQQQwA3EUbIwTxDGht/JRbnNyDqZap9ZTM1olDdYwFocxzWhlwHEaTSGt3bb3WlZzjGq8voWlwctmsjJxSltw1pPZqpB94VhlFuajIuenlfV1MerOiWRMJBd0iNJ5AJtsFhx2nqUpKL2anU26IRWwREWoWIjzl5vbadZRs2bXTQtG7iZIx72jtHJRUCrYqOssc10dQ8z0r2wyON3sI/BvJ3uFtrHHja4PK9yujbXmFpqf2UlHuIqyPh066jaP28R+i4OPkCrNKN8hM2rqSobVVErHuYDq2R3sC4Fpc4uAvsJsLcbqSFivKsak1p6ExWAiItMsQZnrkviDBbdTs77vkWkzcxF2J0YaNzyT1BrHkk9w81NOWGRdPiAaZC5kjBZskdr2O3RcCLObfvHA7TfxyNyEgoHOka50krho6b7DRbsJa0DdcgX3nYF0Y3UFQ09cYKadzq0RFzi4REQBERAEREAREQBERAEREAREQH5ewEEEAg7wdoK0dXkZh8hu6jhud5awNJ+jZb5FKk1wwc5FkJhzTcUcR9YF3k4lb2lpI4m6McbWN5MaGjwC9kUucpcsBERVAREQBERAEREAREQBERAEREAREQBERAEREAREQBERAEREAREQBERAEREAREQBERAEREAREQBERAEREAREQBERAEREAREQBERAEREAREQBERAEREAREQBERAEREAREQBERAEREAREQBERAEREAREQBERAEREAREQH//Z&quot; alt=&quot;Time-series Foundation Models ...&quot;&gt;" style="text;whiteSpace=wrap;html=1;" vertex="1" parent="1">
          <mxGeometry x="270" y="140" width="410" height="130" as="geometry" />
        </mxCell>
      </root>
    </mxGraphModel>
  </diagram>
</mxfile>
